<?xml version="1.0" standalone="no"?>
<!DOCTYPE svg PUBLIC "-//W3C//DTD SVG 20010904//EN"
 "http://www.w3.org/TR/2001/REC-SVG-20010904/DTD/svg10.dtd">
<svg version="1.0" xmlns="http://www.w3.org/2000/svg"
 width="700.000000pt" height="700.000000pt" viewBox="0 0 700.000000 700.000000"
 preserveAspectRatio="xMidYMid meet">
<metadata>
Created by potrace 1.14, written by Peter Selinger 2001-2017
</metadata>
<g transform="translate(0.000000,700.000000) scale(0.100000,-0.100000)"
fill="#000000" stroke="none">
<path d="M4589 5016 c-2 -2 -43 -7 -90 -10 -98 -7 -296 -31 -379 -47 -30 -6
-66 -12 -80 -15 -155 -29 -432 -113 -575 -176 -173 -75 -211 -93 -370 -172
-228 -113 -419 -230 -565 -345 -217 -171 -605 -563 -835 -842 -58 -71 -190
-260 -255 -365 -60 -98 -260 -481 -260 -498 0 -3 -11 -29 -24 -58 -62 -133
-138 -332 -241 -623 -180 -514 -309 -743 -456 -812 -74 -35 -185 -27 -306 22
-23 9 -54 15 -70 13 -36 -4 -42 -40 -15 -101 58 -130 216 -247 463 -343 85
-33 311 -95 399 -110 25 -4 47 -8 50 -9 3 -1 32 -5 65 -9 33 -5 68 -10 77 -12
161 -29 494 -22 653 13 11 2 31 6 45 9 125 24 369 110 529 187 180 86 420 232
546 333 85 67 101 67 204 0 397 -259 932 -475 1392 -561 13 -3 35 -7 49 -10
14 -3 57 -10 95 -16 39 -6 81 -12 95 -15 14 -2 50 -7 80 -10 30 -3 69 -8 85
-11 53 -9 508 -12 560 -4 28 5 73 11 102 15 28 3 84 13 125 22 40 8 81 17 90
19 148 31 468 156 578 226 14 9 59 36 100 60 176 103 407 299 394 334 -8 19
-35 19 -119 0 -112 -26 -262 -43 -350 -39 -318 13 -595 107 -818 276 -100 76
-119 80 -194 36 -124 -73 -286 -110 -483 -111 -151 -1 -190 6 -365 65 -444
150 -671 405 -662 743 3 90 6 107 37 170 102 212 331 284 510 160 23 -16 66
-61 95 -100 30 -39 69 -84 87 -99 70 -59 193 -99 277 -89 188 21 301 147 355
395 7 33 31 58 56 58 11 0 44 -11 73 -25 134 -61 245 -51 352 30 62 48 127
161 151 266 3 13 7 64 9 112 2 49 9 94 15 102 13 15 51 11 83 -9 74 -47 225
-40 312 14 103 64 185 219 185 353 0 58 11 64 81 44 178 -53 346 38 401 218
97 314 -121 674 -577 952 -54 33 -262 136 -341 169 -128 53 -388 133 -485 149
-29 5 -74 13 -171 30 -60 11 -159 25 -212 31 -33 3 -69 8 -80 11 -25 5 -472
14 -477 9z"/>
</g>
</svg>
